<svg width="62" height="31" viewBox="0 0 62 31" fill="none" xmlns="http://www.w3.org/2000/svg">
<path d="M16.7812 0H3.21875C1.61426 0 0.3125 1.30176 0.3125 2.90625V28.0938C0.3125 29.6982 1.61426 31 3.21875 31H16.7812C18.3857 31 19.6875 29.6982 19.6875 28.0938V2.90625C19.6875 1.30176 18.3857 0 16.7812 0ZM10 29.0625C8.92832 29.0625 8.0625 28.1967 8.0625 27.125C8.0625 26.0533 8.92832 25.1875 10 25.1875C11.0717 25.1875 11.9375 26.0533 11.9375 27.125C11.9375 28.1967 11.0717 29.0625 10 29.0625ZM16.7812 22.5234C16.7812 22.923 16.4543 23.25 16.0547 23.25H3.94531C3.5457 23.25 3.21875 22.923 3.21875 22.5234V3.63281C3.21875 3.2332 3.5457 2.90625 3.94531 2.90625H16.0547C16.4543 2.90625 16.7812 3.2332 16.7812 3.63281V22.5234Z" fill="white"/>
<path d="M59.1875 4.3335H34.1875C32.8073 4.3335 31.6875 5.45329 31.6875 6.8335V23.5002C31.6875 24.8804 32.8073 26.0002 34.1875 26.0002H44.1875L43.3542 28.5002H39.6042C38.9115 28.5002 38.3542 29.0575 38.3542 29.7502C38.3542 30.4429 38.9115 31.0002 39.6042 31.0002H53.7708C54.4635 31.0002 55.0208 30.4429 55.0208 29.7502C55.0208 29.0575 54.4635 28.5002 53.7708 28.5002H50.0208L49.1875 26.0002H59.1875C60.5677 26.0002 61.6875 24.8804 61.6875 23.5002V6.8335C61.6875 5.45329 60.5677 4.3335 59.1875 4.3335ZM58.3542 22.6668H35.0208V7.66683H58.3542V22.6668Z" fill="white"/>
</svg>
