<svg width="66" height="66" viewBox="0 0 66 66" fill="none" xmlns="http://www.w3.org/2000/svg">
<rect x="0.5" y="0.5" width="65" height="65" stroke="#D9D9D9"/>
<path d="M14 65V62C14 60.8954 13.1046 60 12 60H7C5.89543 60 5 60.8954 5 62V65" stroke="#CBC8C8"/>
<path d="M50.2306 49.3795L47.9608 52.4937L47.9604 52.4943C47.6434 52.9305 47.5822 53.5084 47.7813 54.0072L47.7815 54.0076C47.9829 54.5108 48.4369 54.8829 49.0033 54.8829H49.1211L46.8072 57.9737C46.8071 57.9737 46.8071 57.9738 46.807 57.9738C46.4798 58.4107 46.413 58.9945 46.6124 59.5L46.6125 59.5002C46.8117 60.0047 47.2769 60.3862 47.8435 60.3862H52.3333V64.0142V64.5142H52.8333H55.1667H55.6667V64.0142V60.3862H56.4141H57.6616H60.1565C60.7231 60.3862 61.1883 60.0047 61.3875 59.5002L61.3876 59.5C61.587 58.9944 61.5202 58.4106 61.1928 57.9737L58.8789 54.8829H58.9967C59.5627 54.8829 60.0171 54.5108 60.2185 54.0072L50.2306 49.3795ZM50.2306 49.3795H50.1605C49.5832 49.3795 49.1189 48.9828 48.9301 48.4663L50.2306 49.3795ZM57.7694 49.3795L60.0388 52.4928L60.039 52.493C60.3568 52.9295 60.4184 53.5081 60.2186 54.007L57.7694 49.3795ZM57.7694 49.3795H57.8395C58.4169 49.3795 58.8805 48.9827 59.0694 48.4667C59.2546 47.9622 59.1736 47.3704 58.8365 46.9474L54.8169 41.8974C54.8168 41.8972 54.8167 41.8971 54.8166 41.8969C54.3963 41.3674 53.6036 41.368 53.1835 41.8969L53.1837 41.8966L57.7694 49.3795ZM49.163 46.9476C49.1631 46.9475 49.1631 46.9475 49.1632 46.9474L53.1833 41.8971L49.163 46.9476ZM49.163 46.9476C49.163 46.9476 49.163 46.9476 49.163 46.9476M49.163 46.9476L49.163 46.9476M49.163 46.9476C48.8259 47.3708 48.7457 47.9623 48.93 48.466L49.163 46.9476Z" stroke="#CBC8C8"/>
<path d="M22.2306 49.3795L19.9608 52.4937L19.9604 52.4943C19.6434 52.9305 19.5822 53.5084 19.7813 54.0072L19.7815 54.0076C19.9829 54.5108 20.4369 54.8829 21.0033 54.8829H21.1211L18.8072 57.9737C18.8071 57.9737 18.8071 57.9738 18.807 57.9738C18.4798 58.4107 18.413 58.9945 18.6124 59.5L18.6125 59.5002C18.8117 60.0047 19.2769 60.3862 19.8435 60.3862H24.3333V64.0142V64.5142H24.8333H27.1667H27.6667V64.0142V60.3862H28.4141H29.6616H32.1565C32.7231 60.3862 33.1883 60.0047 33.3875 59.5002L33.3876 59.5C33.587 58.9944 33.5202 58.4106 33.1928 57.9737L30.8789 54.8829H30.9967C31.5627 54.8829 32.0171 54.5108 32.2185 54.0072L22.2306 49.3795ZM22.2306 49.3795H22.1605C21.5832 49.3795 21.1189 48.9828 20.9301 48.4663L22.2306 49.3795ZM29.7694 49.3795L32.0388 52.4928L32.039 52.493C32.3568 52.9295 32.4184 53.5081 32.2186 54.007L29.7694 49.3795ZM29.7694 49.3795H29.8395C30.4169 49.3795 30.8805 48.9827 31.0694 48.4667C31.2546 47.9622 31.1736 47.3704 30.8365 46.9474L26.8169 41.8974C26.8168 41.8972 26.8167 41.8971 26.8166 41.8969C26.3963 41.3674 25.6036 41.368 25.1835 41.8969L25.1837 41.8966L29.7694 49.3795ZM21.163 46.9476C21.1631 46.9475 21.1631 46.9475 21.1632 46.9474L25.1833 41.8971L21.163 46.9476ZM21.163 46.9476C21.163 46.9476 21.163 46.9476 21.163 46.9476M21.163 46.9476L21.163 46.9476M21.163 46.9476C20.8259 47.3708 20.7457 47.9623 20.93 48.466L21.163 46.9476Z" stroke="#CBC8C8"/>
<path d="M45.8245 54.3222C46.5667 54.3222 47.1688 53.8021 47.1688 53.1611C47.1688 52.5201 46.5667 52 45.8245 52C45.0824 52 44.4802 52.5201 44.4802 53.1611C44.4802 53.8021 45.0824 54.3222 45.8245 54.3222ZM48.4711 57.9289L47.8185 57.6434L47.5469 56.9323C47.1352 55.8534 45.9869 55.0987 44.6847 55.0963C43.6765 55.0939 43.1191 55.3406 42.0717 55.7058C41.4668 55.9163 40.9711 56.3154 40.6798 56.8234L40.4922 57.1524C40.2738 57.5346 40.4502 57.999 40.8899 58.1901C41.3268 58.3812 41.8589 58.2264 42.0801 57.8442L42.2678 57.5152C42.3658 57.3459 42.5282 57.2129 42.7299 57.1427L43.4804 56.8815L43.0547 58.3498C42.9091 58.8529 43.0659 59.3875 43.472 59.7721L45.1496 61.3541C45.3512 61.5452 45.494 61.775 45.5669 62.0242L46.0794 63.7973C46.1998 64.2109 46.6871 64.4649 47.166 64.3609C47.6449 64.2569 47.9389 63.836 47.8185 63.4223L47.1968 61.2695C47.124 61.0203 46.9811 60.7881 46.7795 60.5994L45.5052 59.3972L45.9869 57.7354L46.141 58.1345C46.2894 58.5239 46.6087 58.8457 47.0288 59.0295L47.6813 59.3149C48.1182 59.506 48.6503 59.3512 48.8715 58.969C49.0872 58.5893 48.9107 58.12 48.4711 57.9289ZM42.0605 61.3324C41.9709 61.5283 41.8365 61.7049 41.6628 61.8524L40.2626 63.0643C39.9125 63.3667 39.9125 63.8578 40.2626 64.1601C40.6126 64.4625 41.1783 64.4625 41.5284 64.1601L43.192 62.7233C43.3628 62.5757 43.4972 62.3991 43.5896 62.2032L43.9677 61.3856C42.419 59.9269 42.8839 60.3744 42.6402 60.0866L42.0605 61.3324Z" fill="#CBC8C8"/>
<path d="M38.8245 54.3222C39.5667 54.3222 40.1688 53.8021 40.1688 53.1611C40.1688 52.5201 39.5667 52 38.8245 52C38.0824 52 37.4802 52.5201 37.4802 53.1611C37.4802 53.8021 38.0824 54.3222 38.8245 54.3222ZM41.4711 57.9289L40.8185 57.6434L40.5469 56.9323C40.1352 55.8534 38.9869 55.0987 37.6847 55.0963C36.6765 55.0939 36.1191 55.3406 35.0717 55.7058C34.4668 55.9163 33.9711 56.3154 33.6798 56.8234L33.4922 57.1524C33.2738 57.5346 33.4502 57.999 33.8899 58.1901C34.3268 58.3812 34.8589 58.2264 35.0801 57.8442L35.2678 57.5152C35.3658 57.3459 35.5282 57.2129 35.7299 57.1427L36.4804 56.8815L36.0547 58.3498C35.9091 58.8529 36.0659 59.3875 36.472 59.7721L38.1496 61.3541C38.3512 61.5452 38.494 61.775 38.5669 62.0242L39.0794 63.7973C39.1998 64.2109 39.6871 64.4649 40.166 64.3609C40.6449 64.2569 40.9389 63.836 40.8185 63.4223L40.1968 61.2695C40.124 61.0203 39.9811 60.7881 39.7795 60.5994L38.5052 59.3972L38.9869 57.7354L39.141 58.1345C39.2894 58.5239 39.6087 58.8457 40.0288 59.0295L40.6813 59.3149C41.1182 59.506 41.6503 59.3512 41.8715 58.969C42.0872 58.5893 41.9107 58.12 41.4711 57.9289ZM35.0605 61.3324C34.9709 61.5283 34.8365 61.7049 34.6628 61.8524L33.2626 63.0643C32.9125 63.3667 32.9125 63.8578 33.2626 64.1601C33.6126 64.4625 34.1783 64.4625 34.5284 64.1601L36.192 62.7233C36.3628 62.5757 36.4972 62.3991 36.5896 62.2032L36.9677 61.3856C35.419 59.9269 35.8839 60.3744 35.6402 60.0866L35.0605 61.3324Z" fill="#CBC8C8"/>
<path d="M12.5781 16.9375C12.8125 16.9375 13.0143 16.9896 13.1836 17.0938C13.3529 17.1979 13.4701 17.3021 13.5352 17.4062C13.6003 17.4974 13.6849 17.6471 13.7891 17.8555L16.8555 23.6172C17.1289 24.138 17.2656 24.4505 17.2656 24.5547C17.2656 24.7891 17.0898 24.9909 16.7383 25.1602L15.8203 25.6875C15.651 25.7917 15.4883 25.8438 15.332 25.8438C15.0456 25.8438 14.7526 25.5508 14.4531 24.9648L11.7969 19.8672L9.14062 24.9648C8.84115 25.5508 8.54818 25.8438 8.26172 25.8438C8.10547 25.8438 7.94271 25.7917 7.77344 25.6875L6.85547 25.1602C6.50391 24.9909 6.32812 24.7891 6.32812 24.5547C6.32812 24.4505 6.46484 24.138 6.73828 23.6172L9.80469 17.8555C9.90885 17.6471 9.99349 17.4974 10.0586 17.4062C10.1237 17.3021 10.2409 17.1979 10.4102 17.0938C10.5794 16.9896 10.7812 16.9375 11.0156 16.9375H12.5781ZM20.3516 25.4922V17.7969C20.3516 17.4844 20.4102 17.263 20.5273 17.1328C20.6576 17.0026 20.8919 16.9375 21.2305 16.9375H22.4023C22.7409 16.9375 22.9688 17.0026 23.0859 17.1328C23.2161 17.263 23.2812 17.4844 23.2812 17.7969V19.6328H24.5898C25.1758 19.6328 25.4688 19.8997 25.4688 20.4336V21.4492C25.4688 21.9961 25.1758 22.2695 24.5898 22.2695H23.2812V25.4922C23.2812 25.8047 23.2161 26.026 23.0859 26.1562C22.9688 26.2865 22.7409 26.3516 22.4023 26.3516H21.2305C20.8919 26.3516 20.6576 26.2865 20.5273 26.1562C20.4102 26.026 20.3516 25.8047 20.3516 25.4922ZM22.4023 33.3633H7.83203C7.03776 33.3633 6.64062 32.9336 6.64062 32.0742V28.207C6.64062 27.8815 6.70573 27.6602 6.83594 27.543C6.96615 27.4128 7.19401 27.3477 7.51953 27.3477H8.69141C9.02995 27.3477 9.25781 27.4128 9.375 27.543C9.50521 27.6732 9.57031 27.8945 9.57031 28.207V30.8242H22.4023C22.9883 30.8242 23.2812 31.0911 23.2812 31.625V32.543C23.2812 33.0898 22.9883 33.3633 22.4023 33.3633ZM43.4766 32.582H27.6953C27.1094 32.582 26.8164 32.3151 26.8164 31.7812V30.8633C26.8164 30.3164 27.1094 30.043 27.6953 30.043H34.0039V28.4023C34.0039 28.0898 34.0625 27.8685 34.1797 27.7383C34.3099 27.6081 34.5443 27.543 34.8828 27.543H36.2891C36.6276 27.543 36.8555 27.6081 36.9727 27.7383C37.1029 27.8685 37.168 28.0898 37.168 28.4023V30.043H43.4766C44.0625 30.043 44.3555 30.3164 44.3555 30.8633V31.7812C44.3555 32.3151 44.0625 32.582 43.4766 32.582ZM27.3438 17.7969C27.3438 17.4844 27.4023 17.263 27.5195 17.1328C27.6497 17.0026 27.8841 16.9375 28.2227 16.9375H29.3945C29.7331 16.9375 29.9609 17.0026 30.0781 17.1328C30.2083 17.263 30.2734 17.4844 30.2734 17.7969V19.2617H40.8984V17.7969C40.8984 17.4714 40.957 17.25 41.0742 17.1328C41.2044 17.0026 41.4388 16.9375 41.7773 16.9375H42.9492C43.2878 16.9375 43.5156 17.0026 43.6328 17.1328C43.763 17.263 43.8281 17.4844 43.8281 17.7969V25.2969C43.8281 26.1432 43.431 26.5664 42.6367 26.5664H28.5352C27.7409 26.5664 27.3438 26.1432 27.3438 25.2969V17.7969ZM30.2734 21.7031V24.0664H40.8984V21.7031H30.2734Z" fill="#CBC8C8"/>
</svg>
