<svg width="86" height="103" viewBox="0 0 86 103" fill="none" xmlns="http://www.w3.org/2000/svg">
<path d="M45.648 39.952C45.648 40.688 45.424 41.344 44.976 41.92C44.56 42.528 43.776 42.832 42.624 42.832H20.16C19.008 42.832 18.208 42.528 17.76 41.92C17.344 41.344 17.136 40.688 17.136 39.952V28.192C17.136 27.456 17.344 26.8 17.76 26.224C18.208 25.616 19.008 25.312 20.16 25.312H42.624C43.776 25.312 44.56 25.616 44.976 26.224C45.424 26.8 45.648 27.456 45.648 28.192V39.952ZM26.592 21.04C27.104 22.512 26.464 23.552 24.672 24.16C22.88 24.768 21.728 24.336 21.216 22.864L15.504 5.392L6.288 33.088C5.776 34.56 4.624 34.992 2.832 34.384C1.04 33.776 0.4 32.736 0.912 31.264L10.32 2.944C10.832 1.472 11.984 1.056 13.776 1.696C14.576 1.984 15.152 2.352 15.504 2.8C15.856 2.352 16.432 1.984 17.232 1.696C19.024 1.056 20.176 1.472 20.688 2.944L26.592 21.04ZM39.936 30.64C39.936 30.512 39.92 30.4 39.888 30.304C39.856 30.208 39.728 30.16 39.504 30.16H23.28C23.056 30.16 22.928 30.208 22.896 30.304C22.864 30.4 22.848 30.512 22.848 30.64V37.504C22.848 37.632 22.864 37.744 22.896 37.84C22.928 37.936 23.056 37.984 23.28 37.984H39.504C39.728 37.984 39.856 37.936 39.888 37.84C39.92 37.744 39.936 37.632 39.936 37.504V30.64ZM36.912 22C36.912 23.536 35.952 24.304 34.032 24.304C32.144 24.304 31.2 23.536 31.2 22V2.752C31.2 1.216 32.144 0.447997 34.032 0.447997C35.952 0.447997 36.912 1.216 36.912 2.752V22ZM45.888 11.248C45.888 12.272 45.52 13.152 44.784 13.888C44.08 14.592 43.216 14.944 42.192 14.944C41.168 14.944 40.288 14.592 39.552 13.888C38.848 13.152 38.496 12.272 38.496 11.248C38.496 10.224 38.848 9.36 39.552 8.656C40.288 7.92 41.168 7.552 42.192 7.552C43.216 7.552 44.08 7.92 44.784 8.656C45.52 9.36 45.888 10.224 45.888 11.248ZM55.632 24.832C54.48 24.832 53.68 24.544 53.232 23.968C52.816 23.36 52.608 22.688 52.608 21.952V3.328C52.608 1.792 53.552 1.024 55.44 1.024C57.36 1.024 58.32 1.792 58.32 3.328V19.504C58.32 19.632 58.336 19.744 58.368 19.84C58.4 19.936 58.528 19.984 58.752 19.984H67.92C69.072 19.984 69.856 20.288 70.272 20.896C70.72 21.472 70.944 22.128 70.944 22.864V31.792H83.28C84.528 31.792 85.136 32.608 85.104 34.24C85.104 35.84 84.496 36.64 83.28 36.64H50.544C49.36 36.64 48.752 35.84 48.72 34.24C48.72 32.608 49.328 31.792 50.544 31.792H65.232V25.312C65.232 25.184 65.216 25.072 65.184 24.976C65.152 24.88 65.024 24.832 64.8 24.832H55.632ZM75.408 3.328C75.408 1.792 76.352 1.024 78.24 1.024C80.16 1.024 81.12 1.792 81.12 3.328V21.52C81.12 23.056 80.16 23.84 78.24 23.872C76.352 23.872 75.408 23.088 75.408 21.52V13.408H61.104C59.92 13.408 59.312 12.608 59.28 11.008C59.28 9.376 59.888 8.56 61.104 8.56H75.408V3.328ZM20.208 102.352C19.056 102.352 18.256 102.048 17.808 101.44C17.392 100.864 17.184 100.208 17.184 99.472V88.096C17.184 86.56 18.128 85.792 20.016 85.792C21.936 85.792 22.896 86.56 22.896 88.096V97.024C22.896 97.152 22.912 97.264 22.944 97.36C22.976 97.456 23.104 97.504 23.328 97.504H44.928C46.112 97.504 46.704 98.32 46.704 99.952C46.736 101.552 46.144 102.352 44.928 102.352H20.208ZM45.888 73.744C45.888 74.768 45.52 75.648 44.784 76.384C44.08 77.088 43.216 77.44 42.192 77.44C41.168 77.44 40.288 77.088 39.552 76.384C38.848 75.648 38.496 74.768 38.496 73.744C38.496 72.72 38.848 71.856 39.552 71.152C40.288 70.416 41.168 70.048 42.192 70.048C43.216 70.048 44.08 70.416 44.784 71.152C45.52 71.856 45.888 72.72 45.888 73.744ZM36.912 87.616C36.912 89.152 35.952 89.92 34.032 89.92C32.144 89.92 31.2 89.152 31.2 87.616V62.752C31.2 61.216 32.144 60.448 34.032 60.448C35.952 60.448 36.912 61.216 36.912 62.752V87.616ZM25.872 81.952C25.872 83.488 24.912 84.272 22.992 84.304C21.104 84.304 20.16 83.52 20.16 81.952V66.832C20.16 66.704 20.144 66.592 20.112 66.496C20.08 66.4 19.952 66.352 19.728 66.352H9.6C9.376 66.352 9.248 66.4 9.216 66.496C9.184 66.592 9.168 66.704 9.168 66.832V85.312C9.168 85.44 9.184 85.552 9.216 85.648C9.248 85.744 9.376 85.792 9.6 85.792H14.736C15.952 85.792 16.544 86.608 16.512 88.24C16.512 89.84 15.92 90.64 14.736 90.64H6.48C5.328 90.64 4.528 90.352 4.08 89.776C3.664 89.168 3.456 88.496 3.456 87.76V64.384C3.456 63.648 3.664 62.992 4.08 62.416C4.528 61.808 5.328 61.504 6.48 61.504H22.848C24 61.504 24.784 61.808 25.2 62.416C25.648 62.992 25.872 63.648 25.872 64.384V81.952ZM55.632 84.832C54.48 84.832 53.68 84.544 53.232 83.968C52.816 83.36 52.608 82.688 52.608 81.952V63.328C52.608 61.792 53.552 61.024 55.44 61.024C57.36 61.024 58.32 61.792 58.32 63.328V79.504C58.32 79.632 58.336 79.744 58.368 79.84C58.4 79.936 58.528 79.984 58.752 79.984H67.92C69.072 79.984 69.856 80.288 70.272 80.896C70.72 81.472 70.944 82.128 70.944 82.864V91.792H83.28C84.528 91.792 85.136 92.608 85.104 94.24C85.104 95.84 84.496 96.64 83.28 96.64H50.544C49.36 96.64 48.752 95.84 48.72 94.24C48.72 92.608 49.328 91.792 50.544 91.792H65.232V85.312C65.232 85.184 65.216 85.072 65.184 84.976C65.152 84.88 65.024 84.832 64.8 84.832H55.632ZM75.408 63.328C75.408 61.792 76.352 61.024 78.24 61.024C80.16 61.024 81.12 61.792 81.12 63.328V81.52C81.12 83.056 80.16 83.84 78.24 83.872C76.352 83.872 75.408 83.088 75.408 81.52V73.408H61.104C59.92 73.408 59.312 72.608 59.28 71.008C59.28 69.376 59.888 68.56 61.104 68.56H75.408V63.328Z" fill="white"/>
</svg>
