<svg width="30" height="26" viewBox="0 0 30 26" fill="none" xmlns="http://www.w3.org/2000/svg">
<path d="M27.8518 7.34388H2.14822C1.13425 7.34388 0.312256 6.52188 0.312256 5.50791V1.83597C0.312256 0.821998 1.13425 0 2.14822 0H27.8518C28.8658 0 29.6878 0.821998 29.6878 1.83597V5.50791C29.6878 6.52188 28.8658 7.34388 27.8518 7.34388ZM25.0978 2.29496C24.3373 2.29496 23.7209 2.91145 23.7209 3.67194C23.7209 4.43243 24.3373 5.04891 25.0978 5.04891C25.8583 5.04891 26.4748 4.43243 26.4748 3.67194C26.4748 2.91145 25.8583 2.29496 25.0978 2.29496ZM21.4259 2.29496C20.6654 2.29496 20.0489 2.91145 20.0489 3.67194C20.0489 4.43243 20.6654 5.04891 21.4259 5.04891C22.1864 5.04891 22.8029 4.43243 22.8029 3.67194C22.8029 2.91145 22.1864 2.29496 21.4259 2.29496ZM27.8518 16.5237H2.14822C1.13425 16.5237 0.312256 15.7017 0.312256 14.6878V11.0158C0.312256 10.0018 1.13425 9.17985 2.14822 9.17985H27.8518C28.8658 9.17985 29.6878 10.0018 29.6878 11.0158V14.6878C29.6878 15.7017 28.8658 16.5237 27.8518 16.5237ZM25.0978 11.4748C24.3373 11.4748 23.7209 12.0913 23.7209 12.8518C23.7209 13.6123 24.3373 14.2288 25.0978 14.2288C25.8583 14.2288 26.4748 13.6123 26.4748 12.8518C26.4748 12.0913 25.8583 11.4748 25.0978 11.4748ZM21.4259 11.4748C20.6654 11.4748 20.0489 12.0913 20.0489 12.8518C20.0489 13.6123 20.6654 14.2288 21.4259 14.2288C22.1864 14.2288 22.8029 13.6123 22.8029 12.8518C22.8029 12.0913 22.1864 11.4748 21.4259 11.4748ZM27.8518 25.7036H2.14822C1.13425 25.7036 0.312256 24.8816 0.312256 23.8676V20.1957C0.312256 19.1817 1.13425 18.3597 2.14822 18.3597H27.8518C28.8658 18.3597 29.6878 19.1817 29.6878 20.1957V23.8676C29.6878 24.8816 28.8658 25.7036 27.8518 25.7036ZM25.0978 20.6547C24.3373 20.6547 23.7209 21.2711 23.7209 22.0316C23.7209 22.7921 24.3373 23.4086 25.0978 23.4086C25.8583 23.4086 26.4748 22.7921 26.4748 22.0316C26.4748 21.2711 25.8583 20.6547 25.0978 20.6547ZM21.4259 20.6547C20.6654 20.6547 20.0489 21.2711 20.0489 22.0316C20.0489 22.7921 20.6654 23.4086 21.4259 23.4086C22.1864 23.4086 22.8029 22.7921 22.8029 22.0316C22.8029 21.2711 22.1864 20.6547 21.4259 20.6547Z" fill="white"/>
</svg>
