<svg width="528" height="218" viewBox="0 0 528 218" fill="none" xmlns="http://www.w3.org/2000/svg">
<path d="M66.4469 175.125H10.536C6.62846 175.125 3.04982 172.844 1.42193 169.308L1.42181 169.308C-0.226842 165.721 0.36447 161.632 2.96686 158.652L35.1726 121.742H23.6474C19.7361 121.742 16.278 119.545 14.6292 116.011L14.629 116.011C12.9846 112.476 13.5278 108.427 16.0486 105.45L16.0491 105.45L47.5571 68.3592H36.73C32.7795 68.3592 29.214 66.009 27.6678 62.3791C26.144 58.8074 26.8601 54.6519 29.5091 51.8002L74.9636 2.80532L66.4469 175.125ZM66.4469 175.125V214.666V215.166H66.9469H93.3263H93.8263V214.666V175.125H107.429H121.532H149.737C153.645 175.125 157.223 172.844 158.851 169.308L158.851 169.308C160.5 165.721 159.909 161.633 157.307 158.653C157.306 158.653 157.306 158.653 157.306 158.652L125.101 121.742H136.626C140.533 121.742 143.995 119.545 145.644 116.007C147.293 112.477 146.749 108.422 144.22 105.442L144.22 105.442L112.716 68.3592H123.543C127.494 68.3592 131.055 66.0091 132.601 62.3798C134.13 58.8074 133.409 54.6516 130.76 51.8002L85.3099 2.80563L66.4469 175.125Z" stroke="white"/>
<path d="M249.947 175.125H194.036C190.128 175.125 186.55 172.844 184.922 169.308L184.922 169.308C183.273 165.721 183.864 161.632 186.467 158.652L218.673 121.742H207.147C203.236 121.742 199.778 119.545 198.129 116.011L198.129 116.011C196.485 112.476 197.028 108.427 199.549 105.45L199.549 105.45L231.057 68.3592H220.23C216.279 68.3592 212.714 66.009 211.168 62.3791C209.644 58.8074 210.36 54.6519 213.009 51.8002L258.464 2.80532L249.947 175.125ZM249.947 175.125V214.666V215.166H250.447H276.826H277.326V214.666V175.125H290.929H305.032H333.237C337.145 175.125 340.723 172.844 342.351 169.308L342.351 169.308C344 165.721 343.409 161.633 340.807 158.653C340.806 158.653 340.806 158.653 340.806 158.652L308.601 121.742H320.126C324.033 121.742 327.495 119.545 329.144 116.007C330.793 112.477 330.249 108.422 327.72 105.442L327.72 105.442L296.216 68.3592H307.043C310.994 68.3592 314.555 66.0091 316.101 62.3798C317.63 58.8074 316.909 54.6516 314.26 51.8002L268.81 2.80563L249.947 175.125Z" stroke="white"/>
<path d="M433.447 175.125H377.536C373.628 175.125 370.05 172.844 368.422 169.308L368.422 169.308C366.773 165.721 367.364 161.632 369.967 158.652L402.173 121.742H390.647C386.736 121.742 383.278 119.545 381.629 116.011L381.629 116.011C379.985 112.476 380.528 108.427 383.049 105.45L383.049 105.45L414.557 68.3592H403.73C399.779 68.3592 396.214 66.009 394.668 62.3791C393.144 58.8074 393.86 54.6519 396.509 51.8002L441.964 2.80532L433.447 175.125ZM433.447 175.125V214.666V215.166H433.947H460.326H460.826V214.666V175.125H474.429H488.532H516.737C520.645 175.125 524.223 172.844 525.851 169.308L525.851 169.308C527.5 165.721 526.909 161.633 524.307 158.653C524.306 158.653 524.306 158.653 524.306 158.652L492.101 121.742H503.626C507.533 121.742 510.995 119.545 512.644 116.007C514.293 112.477 513.749 108.422 511.22 105.442L511.22 105.442L479.716 68.3592H490.543C494.494 68.3592 498.055 66.0091 499.601 62.3798C501.13 58.8074 500.409 54.6516 497.76 51.8002L452.31 2.80563L433.447 175.125Z" stroke="white"/>
</svg>
