<svg width="28" height="40" viewBox="0 0 28 40" fill="none" xmlns="http://www.w3.org/2000/svg">
<path d="M14 7C13.0333 7 12.2083 6.65833 11.525 5.975C10.8417 5.29167 10.5 4.46667 10.5 3.5C10.5 2.53333 10.8417 1.70833 11.525 1.025C12.2083 0.341667 13.0333 0 14 0C14.9667 0 15.7917 0.341667 16.475 1.025C17.1583 1.70833 17.5 2.53333 17.5 3.5C17.5 4.46667 17.1583 5.29167 16.475 5.975C15.7917 6.65833 14.9667 7 14 7ZM10 32V22H8V13C8 11.9 8.39167 10.9583 9.175 10.175C9.95833 9.39167 10.9 9 12 9H16C17.1 9 18.0417 9.39167 18.825 10.175C19.6083 10.9583 20 11.9 20 13V22H18V32H10Z" fill="white"/>
<path d="M27.5 32C27.5 33.9523 26.1107 35.8175 23.6514 37.2227C21.2063 38.6199 17.7951 39.5 14 39.5C10.2049 39.5 6.79366 38.6199 4.34857 37.2227C1.88934 35.8175 0.5 33.9523 0.5 32C0.5 30.0477 1.88934 28.1825 4.34857 26.7773C6.79366 25.3801 10.2049 24.5 14 24.5C17.7951 24.5 21.2063 25.3801 23.6514 26.7773C26.1107 28.1825 27.5 30.0477 27.5 32Z" stroke="white"/>
</svg>
